<?xml version="1.0" encoding="utf-8"?>
<!-- Generator: Adobe Illustrator 28.0.0, SVG Export Plug-In . SVG Version: 6.00 Build 0)  -->
<svg version="1.1" id="Capa_1" xmlns="http://www.w3.org/2000/svg" xmlns:xlink="http://www.w3.org/1999/xlink" x="0px" y="0px"
	 viewBox="0 0 1019.35 1080" style="enable-background:new 0 0 1019.35 1080;" xml:space="preserve">
<style type="text/css">
	.st0{fill:#A150FF;}
	.st1{fill:#2B2927;}
	.st2{fill:#FBF7F4;}
	.st3{fill:#A050FF;}
	.st4{fill:#FBF7F5;}
</style>
<g>
	<g>
		<rect x="210.28" y="843.36" class="st0" width="597.99" height="62.88"/>
	</g>
	<g>
		<circle class="st0" cx="509.68" cy="229.67" r="55.91"/>
	</g>
	<g>
		<path class="st0" d="M508.84,445.47c-82.92,0-165.82-31.55-228.94-94.66c-30.88-30.9-54.8-66.94-71.11-107.12l58.28-23.63
			c13.12,32.34,32.39,61.37,57.3,86.27c101.7,101.7,267.18,101.73,368.9,0c25.82-25.81,45.56-55.99,58.68-89.69l58.61,22.78
			c-16.29,41.91-40.78,79.38-72.82,111.39C674.65,413.91,591.73,445.47,508.84,445.47z"/>
	</g>
	<path class="st0" d="M839.95,635.47c0.33-0.64-6.03-7.15-6.46-7.58c-15.11-15.6-35-26.67-53.76-37.3
		c-18.74-10.62-38.1-20.14-57.96-28.47c-19.79-8.3-40.07-15.43-60.7-21.34c-20.66-5.92-41.68-10.61-62.9-14.04
		c-21.36-3.46-42.93-5.66-64.56-6.58c-7.95-0.34-15.91-0.51-23.87-0.51c-29.43,0-58.87,2.33-87.93,7.01
		c-28.93,4.66-57.48,11.65-85.28,20.91c-27.81,9.26-54.87,20.78-80.82,34.4c-13.85,7.27-27.57,14.84-40.7,23.37
		c-11.67,7.58-23.27,15.76-32.44,26.34c-1.12,1.29-2.24,2.6-3.19,4.02c-0.14,0.21,2.56,3.09,2.74,3.3
		c9.22,10.57,20.72,18.89,32.56,26.47c8.59,5.5,17.34,10.76,26.22,15.77c8.85,4.99,17.83,9.74,26.94,14.23
		c9.08,4.48,18.29,8.7,27.6,12.67c9.3,3.96,18.71,7.66,28.21,11.09c9.5,3.43,19.09,6.6,28.77,9.49c9.68,2.9,19.44,5.53,29.27,7.88
		c9.84,2.36,19.75,4.44,29.71,6.25c9.99,1.81,20.03,3.34,30.1,4.6c10.11,1.26,20.26,2.23,30.43,2.93
		c10.22,0.7,20.46,1.11,30.71,1.24c2.37,0.03,4.73,0.05,7.1,0.05c21.58,0,43.16-1.25,64.6-3.77c21.35-2.51,42.56-6.27,63.47-11.28
		c20.83-4.99,41.37-11.22,61.47-18.64c20.13-7.44,39.81-16.08,58.92-25.86c19.24-9.85,37.89-20.85,55.82-32.92
		C823.71,652.66,836.09,643.03,839.95,635.47z M282.91,635.64c69.67-36.64,147.02-56.11,226.84-56.11
		c79.81,0,157.17,19.48,226.83,56.11c-69.68,36.64-147.04,56.11-226.83,56.11C429.93,691.75,352.58,672.27,282.91,635.64z"/>
</g>
</svg>
